<mxfile host="app.diagrams.net" modified="2024-05-07T14:36:45.460Z" agent="Mozilla/5.0 (iPhone; CPU iPhone OS 17_2_1 like Mac OS X) AppleWebKit/605.1.15 (KHTML, like Gecko) Version/17.2 Mobile/15E148 Safari/604.1" version="24.3.1" etag="8ZimRyRx_BHuh7QyGvJk" type="github">
  <diagram name="Страница — 1" id="2SS6aOFXVM7SA0Xi5BM4">
    <mxGraphModel>
      <root>
        <mxCell id="0" />
        <mxCell id="1" parent="0" />
      </root>
    </mxGraphModel>
  </diagram>
</mxfile>
